<svg id="Layer_3" enable-background="new 0 0 64 64" height="512" viewBox="0 0 64 64" width="512" xmlns="http://www.w3.org/2000/svg"><path d="m57 62v-5l-.078-.118c-1.272-1.907-2.206-4.019-2.762-6.243l-.16-.639-.16.639c-.556 2.224-1.49 4.336-2.762 6.243l-.078.118v5" fill="#669e4f"/><path d="m50 62c0-2.518-1.186-4.889-3.2-6.4l-.8-.6.978.14c3.586.512 6.427 3.287 7.022 6.86" fill="#78b75b"/><path d="m58 62c0-2.518 1.186-4.889 3.2-6.4l.8-.6-.978.14c-3.586.512-6.427 3.287-7.022 6.86" fill="#78b75b"/><path d="m13 62v-5l-.078-.118c-1.272-1.907-2.206-4.019-2.762-6.243l-.16-.639-.16.639c-.556 2.224-1.49 4.336-2.762 6.243l-.078.118v5" fill="#669e4f"/><path d="m6 62c0-2.518-1.186-4.889-3.2-6.4l-.8-.6.978.14c3.586.512 6.427 3.287 7.022 6.86" fill="#78b75b"/><path d="m14 62c0-2.518 1.186-4.889 3.2-6.4l.8-.6-.978.14c-3.586.512-6.427 3.287-7.022 6.86" fill="#78b75b"/><path d="m22 59v-8h-4v-21c0-7.732 6.268-14 14-14 7.732 0 14 6.268 14 14v21h-4v8" fill="#4d5d7a"/><path d="m41 30.5c0-5.123-1.644-9.859-4.427-13.721-1.435-.496-2.969-.779-4.573-.779-7.732 0-14 6.268-14 14v21h4v2.565c10.825-2.1 19-11.626 19-23.065z" fill="#8892a0"/><path d="m47 62-1.102-.944c-3.806-3.263-8.653-5.056-13.666-5.056h-.463c-5.013 0-9.861 1.793-13.667 5.056l-1.102.944" fill="#78b75b"/><path d="m2 60h60v2h-60z" fill="#c18e59"/><g fill="#8892a0"><path d="m61.123 2c-2.092 0-3.973 1.036-5.123 2.668-1.15-1.632-3.031-2.668-5.123-2.668h-.877v2h.877c1.503 0 2.85.781 3.617 2h-2.494v2h8v-2h-2.494c.767-1.219 2.114-2 3.617-2h.877v-2z"/><path d="m52.494 20h-2.494v2h8v-2h-2.494c.767-1.219 2.114-2 3.617-2h.877v-2h-.877c-2.092 0-3.973 1.036-5.123 2.668-1.15-1.632-3.031-2.668-5.123-2.668h-.877v2h.877c1.503 0 2.85.781 3.617 2z"/><path d="m6.494 6h-2.494v2h8v-2h-2.494c.767-1.219 2.114-2 3.617-2h.877v-2h-.877c-2.092 0-3.973 1.036-5.123 2.668-1.15-1.632-3.031-2.668-5.123-2.668h-.877v2h.877c1.503 0 2.85.781 3.617 2z"/><path d="m10 18.668c-1.15-1.632-3.031-2.668-5.123-2.668h-.877v2h.877c1.503 0 2.85.781 3.617 2h-2.494v2h8v-2h-2.494c.767-1.219 2.114-2 3.617-2h.877v-2h-.877c-2.092 0-3.973 1.036-5.123 2.668z"/></g><path d="m32 21c4.962 0 9 4.037 9 9h2c0-6.065-4.935-11-11-11s-11 4.935-11 11h2c0-4.963 4.038-9 9-9z" fill="#fff"/><path d="m33 39v-10h4v-2h-4v-4h-2v4h-4v2h4v10z" fill="#fff"/><path d="m21 46h22v2h-22z" fill="#fff"/><path d="m25 50h14v2h-14z" fill="#fff"/></svg>