<svg id="Capa_1" enable-background="new 0 0 512 512" height="512" viewBox="0 0 512 512" width="512" xmlns="http://www.w3.org/2000/svg"><path clip-rule="evenodd" d="m256 101.996c34.21 0 65.745 11.455 90.982 30.737l82.733-82.733h-11.718c-11.046 0-20-8.954-20-20s8.954-20 20-20h60c11.046 0 20 8.954 20 20v60c0 11.046-8.954 20-20 20s-20-8.954-20-20v-11.718l-82.733 82.733c19.281 25.237 30.736 56.772 30.736 90.981 0 75.117-55.68 138.771-130 148.675v21.326h20c11.046 0 20 8.954 20 20s-8.954 20-20 20h-20v20.003c0 11.046-8.954 20-20 20s-20-8.954-20-20v-20.002h-20c-11.046 0-20-8.954-20-20s8.954-20 20-20h20v-21.326c-74.32-9.904-130-73.558-130-148.675 0-34.21 11.455-65.745 30.737-90.982l-17.696-17.696-15.021 15.021c-7.809 7.809-20.472 7.809-28.281 0s-7.809-20.472 0-28.281l15.021-15.021-36.756-36.756v11.718c0 11.046-8.954 20-20 20s-20-8.954-20-20v-60c0-11.046 8.954-20 20-20h60c11.046 0 20 8.954 20 20s-8.954 20-20 20h-11.719l36.755 36.755 15.021-15.021c7.809-7.809 20.472-7.809 28.281 0 7.809 7.81 7.809 20.472 0 28.281l-15.021 15.021 17.696 17.696c25.238-19.281 56.773-30.736 90.983-30.736zm77.783 72.217c-19.905-19.905-47.405-32.217-77.783-32.217s-57.879 12.312-77.783 32.217c-19.905 19.905-32.217 47.406-32.217 77.783 0 60.755 49.245 110 110 110s110-49.245 110-110c0-30.377-12.312-57.878-32.217-77.783z" fill="#b278d3" fill-rule="evenodd"/><path d="m477.996 0h-60c-16.542 0-30 13.458-30 30 0 12.843 8.111 23.826 19.479 28.097l-61.545 61.545c-26.552-18.115-57.462-27.646-89.93-27.646s-63.378 9.531-89.931 27.646l-4.605-4.604 7.951-7.95c11.695-11.696 11.695-30.728 0-42.424-5.666-5.666-13.199-8.786-21.212-8.786s-15.546 3.12-21.212 8.786l-7.95 7.95-14.517-14.517c11.369-4.271 19.48-15.254 19.48-28.097 0-16.542-13.458-30-30-30h-60c-16.542 0-30 13.458-30 30v60c0 16.542 13.458 30 30 30 12.843 0 23.827-8.11 28.097-19.479l14.517 14.517-7.951 7.95c-11.696 11.696-11.696 30.728 0 42.424 5.666 5.666 13.199 8.786 21.212 8.786s15.546-3.12 21.212-8.786l7.95-7.95 4.607 4.606c-8.806 12.927-15.626 26.996-20.32 41.936-1.655 5.269 1.274 10.882 6.543 12.537 5.266 1.654 10.881-1.274 12.538-6.543 4.871-15.505 12.365-29.941 22.274-42.911 3.042-3.981 2.667-9.6-.875-13.143l-17.696-17.696c-3.905-3.904-10.237-3.904-14.143 0l-15.021 15.021c-1.888 1.889-4.399 2.929-7.069 2.929s-5.181-1.04-7.069-2.929c-3.898-3.898-3.898-10.24 0-14.139l15.021-15.021c3.905-3.905 3.905-10.237 0-14.143l-36.756-36.756c-2.859-2.859-7.162-3.715-10.898-2.168-3.737 1.548-6.173 5.194-6.173 9.239v11.719c0 5.514-4.486 10-10 10s-10-4.486-10-10v-60c0-5.514 4.486-10 10-10h60c5.514 0 10 4.486 10 10s-4.486 10-10 10h-11.719c-4.045 0-7.691 2.437-9.239 6.173-1.548 3.737-.692 8.038 2.167 10.898l36.755 36.756c1.875 1.875 4.419 2.929 7.071 2.929s5.196-1.054 7.071-2.929l15.021-15.021c1.888-1.889 4.398-2.929 7.069-2.929 2.67 0 5.181 1.04 7.069 2.929 3.898 3.897 3.898 10.241 0 14.139l-15.021 15.021c-3.905 3.905-3.905 10.237 0 14.143l17.696 17.696c3.543 3.543 9.161 3.917 13.143.875 24.56-18.765 53.921-28.684 84.911-28.684s60.351 9.919 84.91 28.684c3.98 3.041 9.6 2.666 13.143-.875l82.733-82.733c2.86-2.86 3.715-7.161 2.167-10.898-1.548-3.736-5.194-6.173-9.239-6.173h-11.718c-5.514 0-10-4.486-10-10s4.486-10 10-10h60c5.514 0 10 4.486 10 10v60c0 5.514-4.486 10-10 10s-10-4.486-10-10v-11.72c0-4.045-2.437-7.691-6.173-9.239-3.738-1.546-8.038-.692-10.898 2.168l-82.733 82.733c-3.542 3.543-3.917 9.161-.875 13.143 18.767 24.56 28.685 53.922 28.685 84.91 0 69.891-52.157 129.546-121.321 138.764-4.969.662-8.679 4.899-8.679 9.912v21.326c0 5.522 4.477 10 10 10h20c5.514 0 10 4.486 10 10s-4.486 10-10 10h-20c-5.523 0-10 4.478-10 10v20.002c0 5.514-4.486 10-10 10s-10-4.486-10-10v-20.002c0-5.522-4.477-10-10-10h-20c-5.514 0-10-4.486-10-10s4.486-10 10-10h20c5.523 0 10-4.478 10-10v-21.326c0-5.013-3.71-9.25-8.679-9.912-53.535-7.135-98.628-45.115-114.88-96.762-1.658-5.269-7.272-8.194-12.541-6.537-5.268 1.658-8.195 7.272-6.537 12.541 17.687 56.207 65.282 98.254 122.637 109.179v2.817h-10c-16.542 0-30 13.458-30 30s13.458 30 30 30h10v10.002c0 16.542 13.458 30 30 30s30-13.458 30-30v-10.002h10c16.542 0 30-13.458 30-30s-13.458-30-30-30h-10v-2.815c34.961-6.639 66.798-24.824 90.397-51.811 25.539-29.204 39.603-66.627 39.603-105.376 0-32.467-9.531-63.377-27.646-89.931l61.545-61.545c4.271 11.369 15.255 19.48 28.097 19.48 16.542 0 30-13.458 30-30v-60c0-16.542-13.458-30-30-30z"/><path d="m256 371.996c66.168 0 120-53.832 120-120 0-32.055-12.481-62.19-35.145-84.854-22.665-22.664-52.799-35.146-84.854-35.146s-62.19 12.481-84.855 35.146c-22.664 22.664-35.146 52.799-35.146 84.854 0 66.168 53.832 120 120 120zm-70.713-190.712c18.887-18.887 44-29.288 70.713-29.288 26.712 0 51.825 10.401 70.712 29.288 18.886 18.887 29.288 43.999 29.288 70.712 0 55.141-44.86 100-100 100s-100-44.859-100-100c0-26.713 10.402-51.825 29.287-70.712z"/><path d="m116 252.004v-.008c0-5.522-4.477-9.996-10-9.996s-10 4.481-10 10.004 4.477 10 10 10 10-4.478 10-10z"/></svg>