<svg id="Layer_1" enable-background="new 0 0 512.06 512.06" height="512" viewBox="0 0 512.06 512.06" width="512" xmlns="http://www.w3.org/2000/svg"><g><g><path d="m458.01 139.17c-.25-13.02-.48-25.31-.48-37.2 0-9.32-7.55-16.87-16.87-16.87-72.15 0-127.09-20.74-172.88-65.26-3.27-3.19-7.51-4.78-11.75-4.78-4.25 0-8.49 1.59-11.77 4.78-45.79 44.52-100.71 65.26-172.86 65.26-9.31 0-16.87 7.55-16.87 16.87 0 11.89-.23 24.19-.48 37.21-2.31 121.1-5.48 286.96 196.45 356.95 1.79.62 3.65.93 5.52.93h.01c1.87 0 3.73-.31 5.51-.93 201.95-69.99 198.78-235.86 196.47-356.96z" fill="#efefef"/></g><path d="m261.54 496.13c-1.78.62-3.64.93-5.51.93v-482c4.24 0 8.48 1.59 11.75 4.78 45.79 44.52 100.73 65.26 172.88 65.26 9.32 0 16.87 7.55 16.87 16.87 0 11.89.23 24.18.48 37.2 2.31 121.1 5.48 286.97-196.47 356.96z" fill="#e5e5e9"/><g><path d="m473.01 138.88-.01-.49c-.24-12.76-.47-24.82-.47-36.42 0-17.58-14.3-31.87-31.87-31.87-68 0-119.61-19.39-162.42-61.01-6.23-6.06-14.22-9.09-22.21-9.09-8 0-16 3.03-22.23 9.09-42.8 41.62-94.41 61.01-162.4 61.01-17.57 0-31.87 14.29-31.87 31.87 0 11.85-.23 24.03-.48 36.92-1.15 60.2-2.58 135.12 22.56 203.13 13.83 37.4 34.76 69.9 62.22 96.59 31.28 30.41 72.24 54.53 121.75 71.69 3.37 1.17 6.88 1.76 10.44 1.76h.01c3.56 0 7.07-.59 10.43-1.76 49.51-17.16 90.48-41.28 121.76-71.69 27.46-26.7 48.39-59.2 62.22-96.59 25.15-68.01 23.72-142.94 22.57-203.14zm-50.71 192.73c-26.51 71.72-80.7 120.9-165.68 150.35-.19.07-.38.11-.59.11s-.42-.04-.62-.11c-84.96-29.45-139.14-78.63-165.66-150.34-23.17-62.7-21.86-131.47-20.7-192.16.25-13.04.48-25.36.48-37.49 0-1.03.84-1.87 1.87-1.87 76.3 0 134.55-22.09 183.32-69.51.36-.35.83-.53 1.3-.53h.01c.47 0 .93.18 1.3.53 48.76 47.42 107.02 69.51 183.33 69.51 1.03 0 1.87.84 1.87 1.87 0 11.88.23 24.08.47 36.99l.01.49c.26 13.54.53 27.49.53 41.68 0 49.4-3.23 101.77-21.24 150.48z" fill="#e5e5e9"/></g><path d="m359.231 216.127v59.87c0 5.52-4.47 10-10 10h-53.261v53.27c0 5.52-4.48 10-10 10h-59.87c-5.52 0-10-4.48-10-10v-53.27h-53.271c-5.53 0-10-4.48-10-10v-59.87c0-5.52 4.47-10 10-10h53.271v-53.27c0-5.52 4.48-10 10-10h59.871c5.52 0 10 4.48 10 10v53.27h53.261c5.529 0 9.999 4.48 9.999 10z" fill="#ff6769"/><path d="m359.231 216.127v59.87c0 5.52-4.47 10-10 10h-53.261v53.27c0 5.52-4.48 10-10 10h-29.94v-206.41h29.94c5.52 0 10 4.48 10 10v53.27h53.261c5.53 0 10 4.48 10 10z" fill="#ff0c6c"/><path d="m450.44 342.02c-13.83 37.39-34.76 69.89-62.22 96.59-31.28 30.41-72.25 54.53-121.76 71.69-3.36 1.17-6.87 1.76-10.43 1.76v-29.99c.21 0 .4-.04.59-.11 84.98-29.45 139.17-78.63 165.68-150.35 18.01-48.71 21.24-101.08 21.24-150.48 0-14.19-.27-28.14-.53-41.68l-.01-.49c-.24-12.91-.47-25.11-.47-36.99 0-1.03-.84-1.87-1.87-1.87-76.31 0-134.57-22.09-183.33-69.51-.37-.35-.83-.53-1.3-.53v-30.06c7.99 0 15.98 3.03 22.21 9.09 42.81 41.62 94.42 61.01 162.42 61.01 17.57 0 31.87 14.29 31.87 31.87 0 11.6.23 23.66.47 36.42l.01.49c1.15 60.2 2.58 135.13-22.57 203.14z" fill="#d3d1d7"/></g></svg>