<svg id="Capa_1" enable-background="new 0 0 512 512" height="512" viewBox="0 0 512 512" width="512" xmlns="http://www.w3.org/2000/svg"><path d="m473.262 433.79c-1.311 8.515-2.496 16.506-3.398 23.847-1.877 15.227-12.269 28.073-26.772 33.075-50.587 17.45-165.972 46.518-232.111-22.022-4.205-4.352-10.487-5.946-16.275-4.195-17.041 5.149-54.667 13.465-95.449 2.706-53.618-14.136-74.214-82.184-74.214-137.626v-41.768c0-15.468 11.367-28.545 26.772-30.611 2.339-.315 4.761-.378 7.246-.157 43.383 4.876 73.406 23.878 94.442 43.341 12.238 11.336 21.435 22.85 28.408 31.816l.063.084c2.768 3.534 8.075 3.838 11.147.556 18.666-19.967 45.25-32.445 74.738-32.445 34.081 0 64.262 16.663 82.855 42.282 2.118 2.915 6.722 1.573 6.9-2.024 3.639-72.567 33.064-170.04 38.024-186.043.482-1.573.566-3.24.231-4.855-1.101-5.338-3.104-12.238-4.709-18.718-.933-3.754-3.974-6.617-7.781-7.309-44.201-8.117-46.435-10.854-57.802-19.337-2.359-1.762-5.495-2.139-8.201-.975-43.048 18.498-49.623-2.726-49.623-2.726-13.15-44.285-12.951-36.462-11.818-61.997.524-9.795 6.921-17.366 15.3-20.082 20.071-6.512 54.111-15.353 65.038-18.152 2.611-.671 5.348-.598 7.917.241 26.468 8.725 94.484 58.326 94.484 58.326 15.709 12.752 26.154 31.24 27.832 56.051 10.688 159.247 36.15 129.633 6.756 318.717z" fill="#ffcdbe"/><g fill="#81b8fd"><path d="m213.305 271.477-32.139-28.687c-3.24-2.893-8.212-2.61-11.105.63s-2.61 8.212.63 11.105c35.018 31.257 33.367 30.684 37.373 30.684 7.16 0 10.647-8.907 5.241-13.732z"/><path d="m332.921 224.757c-3.549-2.503-8.457-1.653-10.959 1.898l-24.816 35.213c-3.683 5.226.103 12.396 6.422 12.396 2.471 0 4.904-1.161 6.435-3.335l24.816-35.213c2.503-3.55 1.653-8.457-1.898-10.959z"/><path d="m256.352 207.424c-.495-4.315-4.389-7.413-8.709-6.918-4.315.495-7.413 4.394-6.918 8.709l5.452 47.577c.46 4.011 3.861 6.97 7.804 6.97 4.703 0 8.359-4.086 7.823-8.761z"/></g><path d="m473.262 433.79c-1.311 8.515-2.496 16.506-3.398 23.847-1.877 15.227-12.269 28.073-26.772 33.075-50.587 17.45-165.972 46.518-232.111-22.022-4.205-4.352-10.487-5.946-16.275-4.195-17.041 5.149-54.667 13.465-95.449 2.706-53.618-14.136-74.214-82.184-74.214-137.626v-41.768c0-15.468 11.367-28.545 26.772-30.611v16.831c0 55.443 20.596 123.501 74.214 137.626 40.793 10.759 78.419 2.443 95.449-2.706 5.789-1.751 12.07-.157 16.265 4.184 58.159 60.278 175.179 48.144 235.519 20.659z" fill="#fcb19f"/></svg>